<?xml version="1.0" standalone="no"?>
<!DOCTYPE svg PUBLIC "-//W3C//DTD SVG 20010904//EN"
 "http://www.w3.org/TR/2001/REC-SVG-20010904/DTD/svg10.dtd">
<svg version="1.0" xmlns="http://www.w3.org/2000/svg"
 width="762.000000pt" height="775.000000pt" viewBox="0 0 762.000000 775.000000"
 preserveAspectRatio="xMidYMid meet">
<metadata>
Created by potrace 1.15, written by Peter Selinger 2001-2017
</metadata>
<g transform="translate(0.000000,775.000000) scale(0.100000,-0.100000)"
fill="#000000" stroke="none">
<path d="M26 7729 c-21 -17 -26 -27 -22 -45 4 -13 153 -268 333 -567 373 -620
360 -598 342 -576 -12 14 -14 7 -14 -46 0 -60 -3 -66 -101 -232 l-101 -171 33
-7 c39 -7 89 -46 109 -86 20 -37 19 -113 -2 -156 -19 -41 -73 -79 -126 -89
-46 -8 -113 15 -147 51 l-23 25 -148 -244 c-81 -134 -148 -252 -149 -262 -7
-66 14 -74 188 -74 l137 0 281 469 280 469 80 -131 c72 -121 79 -137 84 -197
l5 -65 108 180 c60 99 145 241 190 314 l82 135 0 76 0 76 -328 547 c-237 394
-338 554 -363 573 -65 50 -87 53 -405 54 -288 0 -297 -1 -323 -21z"/>
<path d="M2046 7130 c-68 -21 -102 -90 -72 -149 19 -35 47 -52 127 -75 84 -24
103 -61 45 -88 -20 -9 -30 -8 -52 7 -14 9 -29 26 -31 36 -6 20 -44 25 -90 13
-27 -8 -28 -15 -6 -61 46 -98 260 -97 307 1 39 82 0 149 -106 180 -31 9 -60
16 -66 16 -5 0 -15 7 -22 15 -10 12 -10 18 0 30 19 23 57 18 76 -10 13 -19 24
-25 53 -24 20 0 44 4 53 7 17 7 17 9 0 42 -10 20 -32 42 -52 52 -37 19 -114
22 -164 8z"/>
<path d="M2797 7126 c-20 -8 -44 -20 -53 -27 -57 -47 -73 -189 -31 -270 29
-54 69 -79 142 -86 93 -10 166 31 189 104 6 20 2 24 -41 36 l-47 14 -21 -31
c-25 -38 -71 -46 -104 -19 -25 20 -39 91 -27 138 16 64 87 87 124 40 19 -24
22 -25 71 -13 l50 11 -21 39 c-39 69 -139 96 -231 64z"/>
<path d="M3120 6940 l0 -190 55 0 55 0 0 190 0 190 -55 0 -55 0 0 -190z"/>
<path d="M3640 7085 l0 -45 60 0 60 0 0 -145 0 -145 60 0 60 0 0 145 0 145 60
0 60 0 0 45 0 45 -180 0 -180 0 0 -45z"/>
<path d="M4085 7018 l75 -113 0 -77 0 -78 55 0 55 0 0 78 0 77 75 113 75 112
-64 0 -65 0 -37 -66 c-41 -73 -35 -74 -88 19 l-28 47 -64 0 -64 0 75 -112z"/>
<path d="M4604 7113 c3 -10 22 -96 42 -190 l38 -173 58 0 57 0 11 43 c31 114
50 180 54 184 4 4 14 -26 51 -164 l18 -63 56 0 57 0 38 173 c20 94 39 180 42
190 5 15 -2 17 -49 17 l-55 0 -12 -52 c-6 -29 -14 -72 -17 -96 -3 -23 -9 -44
-13 -47 -3 -2 -12 19 -20 48 -7 29 -19 73 -27 100 l-14 47 -54 0 -54 0 -16
-57 c-47 -165 -46 -163 -60 -78 -4 22 -11 61 -17 88 l-10 47 -55 0 c-47 0 -54
-2 -49 -17z"/>
<path d="M5750 6940 l0 -190 55 0 55 0 0 38 c0 38 14 62 35 62 7 0 22 -22 35
-50 l23 -50 60 0 c59 0 59 0 45 23 -8 12 -31 51 -52 85 l-39 64 49 49 48 49
-64 0 c-64 0 -66 0 -102 -42 l-37 -43 -1 98 0 97 -55 0 -55 0 0 -190z"/>
<path d="M6420 6940 l0 -190 55 0 55 0 0 88 c0 91 8 112 42 112 28 0 38 -33
38 -119 l0 -81 50 0 50 0 0 111 c0 109 0 111 -29 140 -34 33 -75 38 -121 14
l-30 -16 0 66 0 65 -55 0 -55 0 0 -190z"/>
<path d="M2410 7012 c-48 -24 -80 -75 -80 -127 0 -137 183 -196 280 -90 21 22
25 36 25 90 0 54 -4 68 -25 90 -50 55 -134 70 -200 37z"/>
<path d="M3385 7016 c-52 -23 -78 -60 -82 -118 -7 -96 51 -158 150 -158 57 0
103 18 135 52 l23 25 -52 7 c-32 4 -56 3 -62 -3 -25 -25 -87 -6 -87 26 0 10
25 13 100 13 l100 0 0 38 c0 49 -32 100 -75 118 -43 17 -110 18 -150 0z"/>
<path d="M5230 7012 c-48 -24 -80 -75 -80 -127 0 -137 183 -196 280 -90 21 22
25 36 25 90 0 54 -4 68 -25 90 -50 55 -134 70 -200 37z"/>
<path d="M5633 7008 c-20 -19 -23 -20 -23 -5 0 14 -9 17 -45 17 l-45 0 0 -135
0 -135 50 0 50 0 0 73 c0 86 15 122 50 122 18 0 30 9 43 33 21 39 20 41 -24
48 -27 4 -39 0 -56 -18z"/>
<path d="M6145 7015 c-36 -20 -45 -32 -45 -67 0 -57 27 -79 110 -93 56 -9 75
-22 59 -41 -15 -19 -48 -18 -70 2 -14 13 -28 14 -70 7 l-53 -8 29 -33 c23 -24
41 -34 77 -38 109 -15 188 23 188 91 0 46 -33 72 -110 87 -45 9 -65 18 -65 28
0 19 41 26 60 10 14 -12 105 -4 105 9 0 4 -11 18 -25 31 -34 32 -143 40 -190
15z"/>
<path d="M6840 7012 c-48 -24 -80 -75 -80 -127 0 -137 183 -196 280 -90 21 22
25 36 25 90 0 54 -4 68 -25 90 -50 55 -134 70 -200 37z"/>
<path d="M7270 7023 c-8 -3 -23 -12 -32 -21 -16 -14 -18 -13 -18 1 0 14 -10
17 -50 17 l-50 0 0 -185 0 -185 55 0 55 0 0 56 c0 50 2 55 18 49 95 -42 172
16 172 130 0 101 -72 167 -150 138z"/>
<path d="M3686 6276 c-22 -8 -52 -28 -68 -44 -28 -28 -64 -118 -50 -125 4 -3
39 -7 79 -11 l71 -7 12 36 c26 80 130 72 130 -11 0 -34 -26 -66 -95 -119 -123
-95 -189 -176 -209 -257 l-6 -28 240 0 240 0 0 65 0 64 -126 3 -126 3 91 68
c50 37 103 85 117 107 58 88 36 198 -49 242 -54 28 -192 36 -251 14z"/>
<path d="M4240 6279 c-83 -25 -122 -81 -141 -200 -12 -77 -7 -153 16 -235 33
-117 160 -171 301 -129 81 24 117 77 136 199 24 158 -21 305 -107 350 -46 24
-150 31 -205 15z m124 -114 c24 -24 36 -82 36 -171 0 -102 -7 -137 -32 -164
-26 -28 -65 -23 -91 12 -38 52 -36 279 4 319 23 23 62 25 83 4z"/>
<path d="M4746 6276 c-22 -8 -52 -28 -68 -44 -28 -28 -64 -118 -50 -125 4 -3
39 -7 79 -11 l71 -7 12 36 c26 80 130 72 130 -11 0 -34 -26 -66 -95 -119 -123
-95 -189 -176 -209 -257 l-6 -28 240 0 240 0 0 65 0 64 -126 3 -126 3 91 68
c50 37 103 85 117 107 58 88 36 198 -49 242 -54 28 -192 36 -251 14z"/>
<path d="M5300 6279 c-83 -25 -122 -81 -141 -200 -12 -77 -7 -153 16 -235 33
-117 160 -171 301 -129 81 24 117 77 136 199 24 158 -21 305 -107 350 -46 24
-150 31 -205 15z m124 -114 c24 -24 36 -82 36 -171 0 -102 -7 -137 -32 -164
-26 -28 -65 -23 -91 12 -38 52 -36 279 4 319 23 23 62 25 83 4z"/>
<path d="M358 5088 c11 -18 106 -175 211 -348 106 -173 310 -512 454 -752 144
-241 264 -438 267 -438 3 0 39 55 80 123 l75 122 0 80 0 80 -323 535 c-178
294 -336 548 -350 564 -53 57 -90 66 -270 66 l-164 0 20 -32z"/>
<path d="M1946 4640 c-68 -21 -102 -90 -72 -149 19 -35 47 -52 127 -75 84 -24
103 -61 45 -88 -20 -9 -30 -8 -52 7 -14 9 -29 26 -31 36 -6 20 -44 25 -90 13
-27 -8 -28 -15 -6 -61 46 -98 260 -97 307 1 39 82 0 149 -106 180 -31 9 -60
16 -66 16 -5 0 -15 7 -22 15 -10 12 -10 18 0 30 19 23 57 18 76 -10 13 -19 24
-25 53 -24 20 0 44 4 53 7 17 7 17 9 0 42 -10 20 -32 42 -52 52 -37 19 -114
22 -164 8z"/>
<path d="M2697 4636 c-20 -8 -44 -20 -53 -27 -57 -47 -73 -189 -31 -270 29
-54 69 -79 142 -86 93 -10 166 31 189 104 6 20 2 24 -41 36 l-47 14 -21 -31
c-25 -38 -71 -46 -104 -19 -25 20 -39 91 -27 138 16 64 87 87 124 40 19 -24
22 -25 71 -13 l50 11 -21 39 c-39 69 -139 96 -231 64z"/>
<path d="M3020 4450 l0 -190 55 0 55 0 0 190 0 190 -55 0 -55 0 0 -190z"/>
<path d="M3540 4595 l0 -45 60 0 60 0 0 -145 0 -145 60 0 60 0 0 145 0 145 60
0 60 0 0 45 0 45 -180 0 -180 0 0 -45z"/>
<path d="M3985 4528 l75 -113 0 -77 0 -78 55 0 55 0 0 78 0 77 75 113 75 112
-64 0 -65 0 -37 -66 c-41 -73 -35 -74 -88 19 l-28 47 -64 0 -64 0 75 -112z"/>
<path d="M4504 4623 c3 -10 22 -96 42 -190 l38 -173 58 0 57 0 11 43 c31 114
50 180 54 184 4 4 14 -26 51 -164 l18 -63 56 0 57 0 38 173 c20 94 39 180 42
190 5 15 -2 17 -49 17 l-55 0 -12 -52 c-6 -29 -14 -72 -17 -96 -3 -23 -9 -44
-13 -47 -3 -2 -12 19 -20 48 -7 29 -19 73 -27 100 l-14 47 -54 0 -54 0 -16
-57 c-47 -165 -46 -163 -60 -78 -4 22 -11 61 -17 88 l-10 47 -55 0 c-47 0 -54
-2 -49 -17z"/>
<path d="M5650 4450 l0 -190 55 0 55 0 0 38 c0 38 14 62 35 62 7 0 22 -22 35
-50 l23 -50 60 0 c59 0 59 0 45 23 -8 12 -31 51 -52 85 l-39 64 49 49 48 49
-64 0 c-64 0 -66 0 -102 -42 l-37 -43 -1 98 0 97 -55 0 -55 0 0 -190z"/>
<path d="M6320 4450 l0 -190 55 0 55 0 0 88 c0 91 8 112 42 112 28 0 38 -33
38 -119 l0 -81 50 0 50 0 0 111 c0 109 0 111 -29 140 -34 33 -75 38 -121 14
l-30 -16 0 66 0 65 -55 0 -55 0 0 -190z"/>
<path d="M2310 4522 c-48 -24 -80 -75 -80 -127 0 -137 183 -196 280 -90 21 22
25 36 25 90 0 54 -4 68 -25 90 -50 55 -134 70 -200 37z"/>
<path d="M3285 4526 c-52 -23 -78 -60 -82 -118 -7 -96 51 -158 150 -158 57 0
103 18 135 52 l23 25 -52 7 c-32 4 -56 3 -62 -3 -25 -25 -87 -6 -87 26 0 10
25 13 100 13 l100 0 0 38 c0 49 -32 100 -75 118 -43 17 -110 18 -150 0z"/>
<path d="M5130 4522 c-48 -24 -80 -75 -80 -127 0 -137 183 -196 280 -90 21 22
25 36 25 90 0 54 -4 68 -25 90 -50 55 -134 70 -200 37z"/>
<path d="M5533 4518 c-20 -19 -23 -20 -23 -5 0 14 -9 17 -45 17 l-45 0 0 -135
0 -135 50 0 50 0 0 73 c0 86 15 122 50 122 18 0 30 9 43 33 21 39 20 41 -24
48 -27 4 -39 0 -56 -18z"/>
<path d="M6045 4525 c-36 -20 -45 -32 -45 -67 0 -57 27 -79 110 -93 56 -9 75
-22 59 -41 -15 -19 -48 -18 -70 2 -14 13 -28 14 -70 7 l-53 -8 29 -33 c23 -24
41 -34 77 -38 109 -15 188 23 188 91 0 46 -33 72 -110 87 -45 9 -65 18 -65 28
0 19 41 26 60 10 14 -12 105 -4 105 9 0 4 -11 18 -25 31 -34 32 -143 40 -190
15z"/>
<path d="M6740 4522 c-48 -24 -80 -75 -80 -127 0 -137 183 -196 280 -90 21 22
25 36 25 90 0 54 -4 68 -25 90 -50 55 -134 70 -200 37z"/>
<path d="M7170 4533 c-8 -3 -23 -12 -32 -21 -16 -14 -18 -13 -18 1 0 14 -10
17 -50 17 l-50 0 0 -185 0 -185 55 0 55 0 0 56 c0 50 2 55 18 49 95 -42 172
16 172 130 0 101 -72 167 -150 138z"/>
<path d="M3586 3786 c-22 -8 -52 -28 -68 -44 -28 -28 -64 -118 -50 -125 4 -3
39 -7 79 -11 l71 -7 12 36 c26 80 130 72 130 -11 0 -34 -26 -66 -95 -119 -123
-95 -189 -176 -209 -257 l-6 -28 240 0 240 0 0 65 0 64 -126 3 -126 3 91 68
c50 37 103 85 117 107 58 88 36 198 -49 242 -54 28 -192 36 -251 14z"/>
<path d="M4140 3789 c-83 -25 -122 -81 -141 -200 -12 -77 -7 -153 16 -235 33
-117 160 -171 301 -129 81 24 117 77 136 199 24 158 -21 305 -107 350 -46 24
-150 31 -205 15z m124 -114 c24 -24 36 -82 36 -171 0 -102 -7 -137 -32 -164
-26 -28 -65 -23 -91 12 -38 52 -36 279 4 319 23 23 62 25 83 4z"/>
<path d="M4646 3786 c-22 -8 -52 -28 -68 -44 -28 -28 -64 -118 -50 -125 4 -3
39 -7 79 -11 l71 -7 12 36 c26 80 130 72 130 -11 0 -34 -26 -66 -95 -119 -123
-95 -189 -176 -209 -257 l-6 -28 240 0 240 0 0 65 0 64 -126 3 -126 3 91 68
c50 37 103 85 117 107 58 88 36 198 -49 242 -54 28 -192 36 -251 14z"/>
<path d="M5200 3789 c-83 -25 -122 -81 -141 -200 -12 -77 -7 -153 16 -235 33
-117 160 -171 301 -129 81 24 117 77 136 199 24 158 -21 305 -107 350 -46 24
-150 31 -205 15z m124 -114 c24 -24 36 -82 36 -171 0 -102 -7 -137 -32 -164
-26 -28 -65 -23 -91 12 -38 52 -36 279 4 319 23 23 62 25 83 4z"/>
<path d="M40 2487 c-15 -7 -26 -23 -28 -38 -3 -24 55 -123 676 -1153 3 -5 0
-6 -5 -3 -7 4 -11 -13 -11 -47 0 -60 -11 -84 -125 -276 l-75 -125 31 -8 c99
-27 153 -136 113 -230 -7 -18 -29 -47 -49 -64 -65 -57 -160 -52 -228 13 l-26
25 -148 -247 c-82 -136 -150 -257 -152 -268 -2 -12 2 -30 11 -41 13 -18 26
-20 167 -20 l152 0 266 442 c146 243 273 452 282 464 15 22 17 21 81 -87 90
-150 91 -152 97 -216 l6 -58 182 303 c100 166 187 315 193 330 14 40 13 102
-5 142 -8 20 -158 276 -335 570 -210 350 -330 541 -350 555 -65 46 -95 50
-404 50 -214 0 -298 -4 -316 -13z"/>
</g>
</svg>
